<mxfile host="app.diagrams.net" modified="2023-02-22T08:15:40.834Z" agent="5.0 (Windows NT 10.0; Win64; x64) AppleWebKit/537.36 (KHTML, like Gecko) Chrome/110.0.0.0 Safari/537.36 Edg/110.0.1587.50" etag="E_nUVYisodxsuUQW0p2Z" version="20.8.20" type="github">
  <diagram id="C5RBs43oDa-KdzZeNtuy" name="Page-1">
    <mxGraphModel dx="1055" dy="704" grid="1" gridSize="10" guides="1" tooltips="1" connect="1" arrows="1" fold="1" page="1" pageScale="1" pageWidth="827" pageHeight="1169" math="0" shadow="0">
      <root>
        <mxCell id="WIyWlLk6GJQsqaUBKTNV-0" />
        <mxCell id="WIyWlLk6GJQsqaUBKTNV-1" parent="WIyWlLk6GJQsqaUBKTNV-0" />
        <mxCell id="ddag1x1IKj1FcINuBp14-2" style="edgeStyle=orthogonalEdgeStyle;rounded=0;orthogonalLoop=1;jettySize=auto;html=1;exitX=0.5;exitY=1;exitDx=0;exitDy=0;entryX=0.5;entryY=0;entryDx=0;entryDy=0;" edge="1" parent="WIyWlLk6GJQsqaUBKTNV-1" source="ddag1x1IKj1FcINuBp14-0" target="ddag1x1IKj1FcINuBp14-1">
          <mxGeometry relative="1" as="geometry" />
        </mxCell>
        <mxCell id="ddag1x1IKj1FcINuBp14-0" value="QueueStart" style="rounded=1;whiteSpace=wrap;html=1;" vertex="1" parent="WIyWlLk6GJQsqaUBKTNV-1">
          <mxGeometry x="40" y="30" width="120" height="60" as="geometry" />
        </mxCell>
        <mxCell id="ddag1x1IKj1FcINuBp14-5" value="" style="edgeStyle=orthogonalEdgeStyle;rounded=0;orthogonalLoop=1;jettySize=auto;html=1;" edge="1" parent="WIyWlLk6GJQsqaUBKTNV-1" source="ddag1x1IKj1FcINuBp14-1" target="ddag1x1IKj1FcINuBp14-4">
          <mxGeometry relative="1" as="geometry" />
        </mxCell>
        <mxCell id="ddag1x1IKj1FcINuBp14-8" value="" style="edgeStyle=orthogonalEdgeStyle;rounded=0;orthogonalLoop=1;jettySize=auto;html=1;" edge="1" parent="WIyWlLk6GJQsqaUBKTNV-1" source="ddag1x1IKj1FcINuBp14-1" target="ddag1x1IKj1FcINuBp14-7">
          <mxGeometry relative="1" as="geometry" />
        </mxCell>
        <mxCell id="ddag1x1IKj1FcINuBp14-1" value="Is Msg Vallid" style="rhombus;whiteSpace=wrap;html=1;rounded=1;" vertex="1" parent="WIyWlLk6GJQsqaUBKTNV-1">
          <mxGeometry x="60" y="130" width="80" height="80" as="geometry" />
        </mxCell>
        <mxCell id="ddag1x1IKj1FcINuBp14-4" value="Queue end" style="whiteSpace=wrap;html=1;rounded=1;" vertex="1" parent="WIyWlLk6GJQsqaUBKTNV-1">
          <mxGeometry x="190" y="140" width="120" height="60" as="geometry" />
        </mxCell>
        <mxCell id="ddag1x1IKj1FcINuBp14-10" value="" style="edgeStyle=orthogonalEdgeStyle;rounded=0;orthogonalLoop=1;jettySize=auto;html=1;" edge="1" parent="WIyWlLk6GJQsqaUBKTNV-1" source="ddag1x1IKj1FcINuBp14-7" target="ddag1x1IKj1FcINuBp14-9">
          <mxGeometry relative="1" as="geometry" />
        </mxCell>
        <mxCell id="ddag1x1IKj1FcINuBp14-7" value="Load Order Cancel Queue" style="rounded=0;whiteSpace=wrap;html=1;" vertex="1" parent="WIyWlLk6GJQsqaUBKTNV-1">
          <mxGeometry x="40" y="240" width="120" height="60" as="geometry" />
        </mxCell>
        <mxCell id="ddag1x1IKj1FcINuBp14-14" value="" style="edgeStyle=orthogonalEdgeStyle;rounded=0;orthogonalLoop=1;jettySize=auto;html=1;" edge="1" parent="WIyWlLk6GJQsqaUBKTNV-1" source="ddag1x1IKj1FcINuBp14-9" target="ddag1x1IKj1FcINuBp14-13">
          <mxGeometry relative="1" as="geometry" />
        </mxCell>
        <mxCell id="ddag1x1IKj1FcINuBp14-18" style="edgeStyle=orthogonalEdgeStyle;rounded=0;orthogonalLoop=1;jettySize=auto;html=1;exitX=1;exitY=0.5;exitDx=0;exitDy=0;entryX=0;entryY=0.5;entryDx=0;entryDy=0;" edge="1" parent="WIyWlLk6GJQsqaUBKTNV-1" source="ddag1x1IKj1FcINuBp14-9">
          <mxGeometry relative="1" as="geometry">
            <mxPoint x="190" y="380" as="targetPoint" />
          </mxGeometry>
        </mxCell>
        <mxCell id="ddag1x1IKj1FcINuBp14-9" value="是否多个Type" style="rhombus;whiteSpace=wrap;html=1;rounded=0;" vertex="1" parent="WIyWlLk6GJQsqaUBKTNV-1">
          <mxGeometry x="60" y="340" width="80" height="80" as="geometry" />
        </mxCell>
        <mxCell id="ddag1x1IKj1FcINuBp14-11" value="否" style="text;html=1;align=center;verticalAlign=middle;resizable=0;points=[];autosize=1;strokeColor=none;fillColor=none;" vertex="1" parent="WIyWlLk6GJQsqaUBKTNV-1">
          <mxGeometry x="150" y="145" width="40" height="30" as="geometry" />
        </mxCell>
        <mxCell id="ddag1x1IKj1FcINuBp14-12" value="是" style="text;html=1;align=center;verticalAlign=middle;resizable=0;points=[];autosize=1;strokeColor=none;fillColor=none;" vertex="1" parent="WIyWlLk6GJQsqaUBKTNV-1">
          <mxGeometry x="90" y="205" width="40" height="30" as="geometry" />
        </mxCell>
        <mxCell id="ddag1x1IKj1FcINuBp14-13" value="加载OrderLine数据" style="rounded=0;whiteSpace=wrap;html=1;" vertex="1" parent="WIyWlLk6GJQsqaUBKTNV-1">
          <mxGeometry x="40" y="450" width="120" height="60" as="geometry" />
        </mxCell>
        <mxCell id="ddag1x1IKj1FcINuBp14-15" value="是" style="text;html=1;align=center;verticalAlign=middle;resizable=0;points=[];autosize=1;strokeColor=none;fillColor=none;" vertex="1" parent="WIyWlLk6GJQsqaUBKTNV-1">
          <mxGeometry x="95" y="420" width="40" height="30" as="geometry" />
        </mxCell>
        <mxCell id="ddag1x1IKj1FcINuBp14-19" value="否" style="text;html=1;align=center;verticalAlign=middle;resizable=0;points=[];autosize=1;strokeColor=none;fillColor=none;" vertex="1" parent="WIyWlLk6GJQsqaUBKTNV-1">
          <mxGeometry x="150" y="350" width="40" height="30" as="geometry" />
        </mxCell>
        <mxCell id="ddag1x1IKj1FcINuBp14-22" style="edgeStyle=orthogonalEdgeStyle;rounded=0;orthogonalLoop=1;jettySize=auto;html=1;exitX=1;exitY=0.5;exitDx=0;exitDy=0;entryX=0;entryY=0.5;entryDx=0;entryDy=0;" edge="1" parent="WIyWlLk6GJQsqaUBKTNV-1" source="ddag1x1IKj1FcINuBp14-20" target="ddag1x1IKj1FcINuBp14-21">
          <mxGeometry relative="1" as="geometry" />
        </mxCell>
        <mxCell id="ddag1x1IKj1FcINuBp14-24" style="edgeStyle=orthogonalEdgeStyle;rounded=0;orthogonalLoop=1;jettySize=auto;html=1;exitX=0.5;exitY=1;exitDx=0;exitDy=0;entryX=1;entryY=0.5;entryDx=0;entryDy=0;" edge="1" parent="WIyWlLk6GJQsqaUBKTNV-1" source="ddag1x1IKj1FcINuBp14-20" target="ddag1x1IKj1FcINuBp14-13">
          <mxGeometry relative="1" as="geometry" />
        </mxCell>
        <mxCell id="ddag1x1IKj1FcINuBp14-20" value="根据Type分离Msg" style="rounded=0;whiteSpace=wrap;html=1;" vertex="1" parent="WIyWlLk6GJQsqaUBKTNV-1">
          <mxGeometry x="190" y="350" width="90" height="60" as="geometry" />
        </mxCell>
        <mxCell id="ddag1x1IKj1FcINuBp14-21" value="Queue end" style="whiteSpace=wrap;html=1;rounded=1;" vertex="1" parent="WIyWlLk6GJQsqaUBKTNV-1">
          <mxGeometry x="370" y="350" width="120" height="60" as="geometry" />
        </mxCell>
        <mxCell id="ddag1x1IKj1FcINuBp14-23" value="分离出的Msg" style="text;html=1;align=center;verticalAlign=middle;resizable=0;points=[];autosize=1;strokeColor=none;fillColor=none;" vertex="1" parent="WIyWlLk6GJQsqaUBKTNV-1">
          <mxGeometry x="280" y="350" width="90" height="30" as="geometry" />
        </mxCell>
        <mxCell id="ddag1x1IKj1FcINuBp14-25" value="遇到的第一个Type相同的Msg" style="text;html=1;align=center;verticalAlign=middle;resizable=0;points=[];autosize=1;strokeColor=none;fillColor=none;" vertex="1" parent="WIyWlLk6GJQsqaUBKTNV-1">
          <mxGeometry x="185" y="450" width="180" height="30" as="geometry" />
        </mxCell>
      </root>
    </mxGraphModel>
  </diagram>
</mxfile>
